<svg width="33" height="34" viewBox="0 0 33 34" fill="none" xmlns="http://www.w3.org/2000/svg">
<path fill-rule="evenodd" clip-rule="evenodd" d="M10.2937 30.0627H21.772C25.9881 30.0627 29.2227 28.5397 28.304 22.4105L27.2342 14.1038C26.6678 11.0455 24.7171 9.875 23.0053 9.875H9.00993C7.27309 9.875 5.43557 11.1336 4.78109 14.1038L3.7113 22.4105C2.93099 27.8476 6.07744 30.0627 10.2937 30.0627Z" stroke="#FF9F47" stroke-width="1.5" stroke-linecap="round" stroke-linejoin="round"/>
<path d="M10.1047 9.57289C10.1047 6.29204 12.7644 3.63238 16.0452 3.63238C17.6251 3.62568 19.1425 4.2486 20.2621 5.36339C21.3816 6.47817 22.0109 7.993 22.0109 9.57289" stroke="#FF9F47" stroke-width="1.5" stroke-linecap="round" stroke-linejoin="round"/>
<path d="M11.9675 15.7651H12.0305" stroke="#FF9F47" stroke-width="1.5" stroke-linecap="round" stroke-linejoin="round"/>
<path d="M19.9846 15.7651H20.0476" stroke="#FF9F47" stroke-width="1.5" stroke-linecap="round" stroke-linejoin="round"/>
</svg>
