<svg width="101" height="38" viewBox="0 0 101 38" fill="none" xmlns="http://www.w3.org/2000/svg">
<path d="M47.3474 9.30029C47.744 9.31988 48.148 9.2947 48.5342 9.36745C50.0539 9.65473 50.7347 10.525 50.9395 12.3811C50.8263 12.9454 50.7618 13.5199 50.5093 14.0497C49.9641 15.1914 48.6427 15.7174 47.613 15.1988C47.2483 15.0151 46.978 14.7185 46.6909 14.4396C46.4562 14.2111 46.1869 14.0618 45.8493 14.1878C45.4752 14.3267 45.4883 14.6578 45.4995 14.9712C45.5322 15.9245 45.5753 16.8768 45.6127 17.83C45.6538 18.8663 45.6529 18.8961 46.7162 18.8933C47.4045 18.8915 47.6925 19.2244 47.7215 19.8512C47.7477 20.4267 47.7468 21.0031 47.7571 21.5796C47.584 22.0842 47.1978 22.3118 46.6947 22.3547C44.5886 22.5337 42.4817 22.7026 40.3747 22.8779C39.6817 22.9357 39.3741 22.5198 39.2067 21.8426C38.5015 22.5188 37.7646 23.0188 36.8724 23.2603C35.8727 23.5308 34.9254 23.4907 34.0912 22.8173C33.7994 22.5813 33.6124 22.6177 33.3711 22.876C32.4378 23.8731 31.1968 24.3432 29.9081 24.3768C28.7653 24.4057 27.6235 24.028 26.8005 23.0887C26.6714 22.9413 26.5414 22.794 26.3675 22.5962C26.0009 24.2789 24.8114 25.0941 23.3843 25.6462C21.4466 26.3961 19.5547 25.65 18.3586 24.3292C18.2548 24.2145 18.15 24.1007 18.0453 23.986C17.0549 22.4265 16.5415 20.6786 16.0833 18.9166C15.9551 18.4232 15.8383 18.1742 15.2547 18.3719C14.6655 18.5715 14.2363 18.3272 14.0044 17.7162C13.7116 16.9421 13.4984 16.1549 13.4489 15.3275C13.548 15.2137 13.6378 15.0888 13.7481 14.9871C14.0502 14.7091 14.6889 14.8239 14.7619 14.4004C14.8292 14.0077 14.5804 13.5619 14.4719 13.1384C14.4233 12.95 14.3756 12.7607 14.327 12.5723C14.3794 12.0313 14.6898 11.7617 15.2014 11.5799C16.2058 11.2217 17.1821 10.7824 18.1725 10.385C18.4783 10.2629 18.7944 10.1239 19.1058 10.3822C19.2208 10.7581 19.3405 11.1322 19.4499 11.509C19.7511 12.5493 20.4334 12.9214 21.4971 12.6254C22.7942 12.2645 22.9784 12.3615 23.3534 13.5973C23.4048 13.9704 23.474 14.3426 23.504 14.7175C23.5732 15.585 23.3403 15.9413 22.5267 16.2164C22.1695 16.3367 21.8047 16.4384 21.4372 16.5214C21.166 16.583 21.0472 16.7098 21.1286 16.9859C21.512 18.2805 21.7935 19.6078 22.3312 20.8539C22.4996 21.2447 22.7708 21.5133 23.2337 21.5283C24.0267 21.5535 25.4604 20.3176 25.5109 19.535C25.5689 18.6368 25.8719 17.8422 26.5031 17.2014C26.8267 16.8731 26.7631 16.777 26.3956 16.4972C25.4361 15.7668 24.6065 14.7698 25.1433 13.4416C25.5445 12.8353 26.1879 12.521 26.7537 12.1143C26.8052 12.0761 26.8566 12.0378 26.908 12.0005L26.9146 12.007C28.25 11.3038 29.6706 10.8607 31.1603 10.6332C31.9178 10.6322 32.6744 10.6304 33.4319 10.6294C33.5572 10.6742 33.6788 10.7385 33.8078 10.76C35.7624 11.0799 36.8939 12.2346 37.2278 14.1598C37.4476 15.4273 37.6206 16.7042 37.7964 17.9793C37.8497 18.3663 37.9722 18.6172 38.4239 18.5389C38.9916 18.4419 39.3208 18.7021 39.4367 19.245C39.4919 19.5052 39.634 19.5434 39.8734 19.5043C40.3102 19.4334 40.4607 19.2049 40.428 18.7655C40.3158 17.2601 40.2241 15.7529 40.1409 14.2456C40.1222 13.9023 40.0231 13.7046 39.6396 13.7027C39.3067 13.7009 39.0187 13.5684 38.9158 13.2205C38.7297 12.5909 38.4501 11.9875 38.509 11.2945C38.5408 10.9195 38.6268 10.6136 38.9261 10.3804C40.2587 9.97279 41.6484 9.86179 43.0101 9.60996C43.6628 9.48964 44.2398 9.72188 44.6354 10.2862C44.7906 10.5082 44.9599 10.6117 45.1675 10.3878C45.5865 9.93641 46.1616 9.748 46.676 9.45513C46.7227 9.44487 46.7695 9.43461 46.8163 9.42435C46.9238 9.39357 47.0304 9.36279 47.138 9.33201C47.2081 9.32175 47.2792 9.31242 47.3493 9.30216L47.3474 9.30029ZM25.8064 19.7374C25.7896 21.5693 27.1718 23.1148 29.0103 23.3238C30.631 23.5075 32.059 23.1008 33.242 21.9517C33.4702 21.7297 33.6554 21.6141 33.9855 21.8342C35.4107 22.7809 37.2549 22.5738 38.509 21.4079C39.1328 20.8287 39.2964 20.1506 39.1571 19.355C39.0916 18.9791 38.9523 18.731 38.4866 18.8644C37.976 19.0118 37.6645 18.7823 37.5776 18.2684C37.3569 16.9701 37.0941 15.6764 36.9435 14.3706C36.7724 12.8857 36.07 11.8224 34.6944 11.2469C33.6245 10.8001 32.4976 10.7302 31.3474 10.8859C29.3002 11.162 27.3794 11.73 25.8401 13.1953C25.09 13.9098 25.1003 14.3519 25.8429 15.1839C26.4779 15.8956 26.5358 15.8937 27.4467 15.1699C27.7076 14.9619 27.9685 14.7502 28.2491 14.5702C29.1478 13.9956 30.1064 13.6104 31.2043 13.6906C31.857 13.7382 32.2049 14.1122 32.3471 14.7185C32.4107 14.9899 32.3676 15.1158 32.031 15.2109C30.9312 15.5187 29.7968 15.6736 28.7204 16.0961C26.808 16.8469 25.8223 18.0175 25.8064 19.7365V19.7374ZM45.1946 15.5085C45.2059 15.5085 45.2162 15.5085 45.2274 15.5076C45.2274 14.9964 45.1956 14.4834 45.2367 13.976C45.276 13.4873 45.5986 13.2224 46.0896 13.2093C46.4964 13.1991 46.7125 13.5265 46.9556 13.7755C47.4494 14.2801 47.9974 14.5972 48.7399 14.4582C49.8322 14.254 50.5018 13.4835 50.5776 12.3158C50.6608 11.0361 50.0146 10.0269 48.8606 9.69857C47.4036 9.2835 46.1841 9.76199 45.1385 10.7712C44.7935 11.1042 44.5681 11.2795 44.4082 10.6304C44.2959 10.1789 43.9509 9.97652 43.4646 9.95226C42.0449 9.88138 40.7001 10.2433 39.346 10.5856C39.0299 10.6658 38.8821 10.816 38.8868 11.1284C38.8924 11.4614 38.8896 11.7953 38.9111 12.1283C38.9364 12.5145 39.1534 12.7654 39.5415 12.7747C40.1998 12.7905 40.3401 13.2009 40.3756 13.74C40.4897 15.446 40.6085 17.151 40.7347 18.856C40.7609 19.2049 40.6955 19.5425 40.3233 19.5817C39.4601 19.6712 39.4264 20.2327 39.4358 20.8959C39.4479 21.7969 39.6415 22.0049 40.5412 21.9321C42.5397 21.7689 44.5381 21.6029 46.5357 21.4341C47.4382 21.3576 47.5588 21.1906 47.498 20.1553C47.4447 19.2552 47.311 19.133 46.4141 19.1638C45.6099 19.1909 45.4228 19.036 45.3639 18.2367C45.2975 17.3282 45.2508 16.4179 45.1956 15.5085H45.1946ZM21.2146 24.915C23.0167 24.9178 24.3821 24.3647 25.3014 23.3993C25.581 23.1064 25.8195 22.7856 25.928 22.3892C26.0252 22.0338 25.6624 20.6058 25.4389 20.5853C24.9629 20.5424 24.874 21.0834 24.5411 21.2774C24.4644 21.3221 24.3999 21.3865 24.3269 21.4359C23.316 22.1243 22.4771 21.9153 22.0217 20.7924C21.4288 19.3317 21.05 17.8002 20.6301 16.2836C20.5273 15.9114 20.6769 15.7641 21.0285 15.6838C21.5924 15.5551 22.1451 15.377 22.7072 15.2352C23.1813 15.1158 23.3001 14.794 23.2066 14.3734C23.0719 13.7718 23.2243 13.0349 22.5043 12.6917C22.3715 12.6282 22.1554 12.7141 21.9843 12.757C21.4222 12.8978 20.8518 13.0172 20.3075 13.2103C19.8034 13.3884 19.6239 13.1897 19.5191 12.7374C19.3929 12.1964 19.189 11.6731 19.0833 11.1294C18.9571 10.4783 18.6475 10.4084 18.0967 10.6695C17.4935 10.9549 16.8595 11.1741 16.2451 11.4372C14.313 12.2663 14.4654 11.9893 15.0059 13.9779C15.1574 14.5357 15.0433 14.7651 14.4925 14.9386C13.6032 15.2184 13.5751 15.335 13.8201 16.2556C13.8659 16.4272 13.9174 16.5979 13.9735 16.7667C14.2653 17.6426 14.312 17.6911 15.2154 17.3972C15.7681 17.2172 15.9355 17.3907 16.0842 17.9158C16.5312 19.4949 16.9184 21.1039 17.7264 22.5533C18.5587 24.0457 19.8287 24.8702 21.2174 24.915H21.2146ZM27.7824 16.1754C29.0833 15.57 30.4384 15.1652 31.9272 14.9862C31.0275 14.2773 28.7186 14.9498 27.7824 16.1754Z" fill="#F38B22"/>
<path d="M15.3791 25.5819C14.4664 27.6712 12.6792 28.6169 10.6162 29.1924C9.42945 29.5226 8.21558 29.6607 6.98394 29.6178C6.0712 29.586 5.81963 29.3836 5.51289 28.4985C5.27349 27.8101 4.93962 27.1507 4.92934 26.3971C4.92279 25.9195 5.06587 25.5399 5.51383 25.3114C5.87949 25.1248 5.89164 24.9196 5.50167 24.7657C4.16997 24.2388 3.79776 23.0057 3.29089 21.8566C3.20392 21.6588 3.44239 21.462 3.21795 21.3156C3.10386 18.8961 4.04278 17.4812 6.43966 16.3852C7.66849 15.8237 8.97495 15.6139 10.2926 15.4292C10.5339 15.4376 10.7742 15.4516 11.0155 15.4544C11.6673 15.4618 12.2836 15.557 12.7288 16.1036C12.855 16.4095 13.0196 16.7061 13.101 17.0232C13.3684 18.0707 13.9529 19.1666 12.6259 20.0686C14.1886 20.4827 15.0696 21.4369 15.4296 22.8928C15.654 23.7985 15.5886 24.6902 15.3782 25.5828L15.3791 25.5819ZM8.48117 24.249C8.48117 24.249 8.48117 24.2406 8.48117 24.236C9.12645 24.236 9.77266 24.2173 10.417 24.2434C10.7471 24.2574 11.0146 24.4356 11.095 24.7872C11.1773 25.1472 11.0707 25.455 10.7518 25.6546C10.5461 25.7824 10.3216 25.8878 10.0953 25.9755C8.93567 26.426 7.86769 26.2124 6.87078 25.5147C6.40038 25.1855 5.97487 25.3851 5.57087 25.6425C5.19306 25.8831 5.18277 26.2553 5.26413 26.6508C5.367 27.1535 5.52879 27.6357 5.72611 28.1095C5.87761 28.4742 6.13011 28.6636 6.53131 28.7046C7.70029 28.8268 8.84496 28.6636 9.97466 28.4024C11.5822 28.0312 13.0898 27.424 14.2428 26.1956C15.2426 25.1314 15.4464 23.8834 14.9798 22.4918C14.5496 21.2093 13.6649 20.5377 12.3622 20.3334C11.341 20.174 10.3188 20.2374 9.29665 20.3055C8.94128 20.3297 8.58498 20.3875 8.23335 20.2989C7.92754 20.2225 7.61145 20.1357 7.53757 19.7673C7.4693 19.4278 7.6208 19.1489 7.87704 18.9465C8.6308 18.3514 9.48369 18.1975 10.3918 18.4988C10.7462 18.6163 11.0791 18.815 11.3999 19.0118C11.9049 19.3224 12.3482 19.1265 12.7746 18.8681C13.2067 18.607 13.1412 18.1882 13.0234 17.7955C12.8896 17.3497 12.7148 16.9169 12.5604 16.4766C12.3743 15.945 11.9834 15.7146 11.4373 15.7044C9.13299 15.6624 6.96524 16.0849 5.08738 17.5306C3.65 18.6378 3.11508 20.0975 3.6154 21.6131C4.18586 23.3405 5.40254 24.2164 7.27946 24.2462C7.68065 24.2527 8.08091 24.2462 8.48211 24.2462L8.48117 24.249ZM10.7527 25.2237C9.51081 25.1034 8.42787 25.2237 7.27572 25.2265C8.03415 26.1751 9.62023 26.1909 10.7527 25.2237ZM11.3877 19.9249C10.5676 19.2077 9.46499 19.1107 8.51016 19.6264C8.37643 19.6983 8.16975 19.7701 8.2109 19.9342C8.26327 20.146 8.49707 20.0984 8.66727 20.0891C9.54728 20.0406 10.4273 19.9837 11.3877 19.9249Z" fill="#F38B22"/>
<path d="M95.2336 14.6473C95.7508 14.9057 95.7012 15.3236 95.5759 15.7834C95.4375 16.288 94.9989 16.8532 95.2317 17.2748C95.4384 17.6498 96.122 17.6442 96.6139 17.7598C96.8608 17.8177 97.0759 18.0107 97.3509 18.021C97.5229 18.2393 97.8456 18.3801 97.7829 18.7252C97.5931 19.7633 97.3827 20.7958 96.5625 21.5653C96.0584 21.626 95.5768 21.5672 95.1354 21.2939C94.8689 21.1904 94.6024 21.0869 94.3358 20.9824C94.1198 20.8975 93.9374 20.9022 93.871 21.1689C93.5101 22.638 92.7049 24.0016 92.8255 25.5835C92.3055 25.3867 92.3972 24.9306 92.4739 24.5687C92.7245 23.386 92.9761 22.1977 93.3324 21.0449C93.6999 19.8557 93.7672 19.8668 94.983 20.2502C95.1532 20.3034 95.3243 20.3528 95.4964 20.3985C96.714 20.7222 96.9113 20.6177 97.3172 19.4415C97.3602 19.3156 97.392 19.185 97.4313 19.0582C97.5706 18.6133 97.4341 18.34 96.9656 18.2085C96.3867 18.0471 95.8265 17.8195 95.2458 17.6703C94.7323 17.5388 94.5238 17.3438 94.795 16.7991C95.0008 16.385 95.1017 15.9196 95.2598 15.4803C95.3917 15.1128 95.2645 14.9421 94.8829 14.8982C93.799 14.7742 92.7189 14.6166 91.6341 14.5121C90.64 14.417 90.5352 14.4748 90.3052 15.4579C90.164 16.0604 89.9115 16.163 89.3728 15.9448C89.0576 15.817 88.7126 15.6202 88.3535 15.8198C88.0607 15.9821 87.5426 17.3989 87.639 17.7813C87.7774 18.3288 88.2992 18.3633 88.707 18.4333C89.3186 18.5387 89.3457 18.8157 89.1549 19.3016C88.6593 20.5645 88.3441 21.8797 88.0748 23.2051C87.682 25.1358 88.1776 26.6477 89.5337 27.4489C91.0038 28.3164 92.5908 28.4777 94.2376 27.9955C94.7511 27.8453 95.0615 27.5133 95.2317 27.0087C95.574 25.9958 95.5123 25.9361 94.4555 25.9678C93.8954 25.9846 93.2417 26.2224 92.8227 25.5807C93.035 25.5005 93.1538 25.7672 93.3558 25.7234C93.7719 25.9267 94.1778 25.8381 94.6117 25.7523C95.0148 25.673 95.4711 25.3018 95.863 25.8027C95.8705 25.8633 95.8789 25.9239 95.8864 25.9846C95.6675 26.5022 95.5001 27.0367 95.3907 27.5879C95.2364 28.5981 94.5285 28.9394 93.6232 29.0672C92.9602 29.1605 92.299 29.2118 91.6322 29.1157C90.0761 28.8051 88.7565 28.1541 88.0327 26.6403C87.9345 26.2877 87.8354 25.9351 87.7372 25.5835C87.7446 25.3326 87.7577 25.0808 87.6343 24.8485C87.6539 24.5137 87.6726 24.1788 87.6923 23.844C87.7054 23.7134 87.7175 23.5828 87.7306 23.4522C87.8915 22.2966 88.2786 21.1997 88.634 20.0972C88.7743 19.6617 88.7734 19.4042 88.259 19.2839C87.8382 19.186 87.495 18.9435 87.3313 18.5125C87.3397 18.159 87.3481 17.8046 87.3565 17.4511C87.4145 17.2851 87.4791 17.1209 87.5296 16.953C87.9775 15.4635 87.9775 15.4569 89.5159 15.719C89.8254 15.7722 89.9498 15.6519 90.0611 15.387C90.2126 15.0288 90.1827 14.5839 90.5465 14.3228C90.9046 14.3311 91.2619 14.3405 91.6201 14.3489C92.8339 14.3414 94.0169 14.6921 95.2336 14.6501V14.6473Z" fill="#F38B22"/>
<path d="M75.0515 23.307C75.0468 23.2622 75.0318 23.2211 75.0066 23.1838C75.1375 23.0281 75.1852 22.8471 75.1665 22.6475C75.1684 22.6018 75.1693 22.5571 75.1712 22.5113V22.5188C75.3657 22.4843 75.3882 22.3192 75.4368 22.1737C75.5743 21.7596 75.8202 21.5395 76.2915 21.6607C76.9209 21.823 77.2295 21.5506 77.3764 20.9295C77.7439 19.3727 78.1451 17.8235 78.5622 16.2789C78.6922 15.7986 78.6108 15.5616 78.0908 15.4171C77.064 15.1317 77.0631 15.0878 77.2987 14.074C77.3436 13.8799 77.4053 13.6878 77.4755 13.5013C77.7663 12.7327 77.901 12.6329 78.6566 12.9248C79.2561 13.1571 79.5787 13.0452 79.705 12.4118C79.7311 12.2822 79.7816 12.1563 79.834 12.0332C80.4709 10.5436 81.4051 9.30401 83.0361 8.86004C85.36 8.22859 87.4221 8.90295 89.1485 10.4811C90.5307 11.744 90.0593 13.3446 88.2479 13.8538C87.1827 14.1532 86.991 14.0544 86.6412 13.0265C86.3008 12.0257 85.3282 11.8392 84.6072 12.6189C84.2621 12.992 84.1116 13.4416 83.9619 13.9061C83.8628 14.2148 83.9582 14.351 84.2584 14.433C84.8382 14.5916 85.4021 14.8183 85.9885 14.9395C86.6684 15.0804 86.7946 15.4674 86.63 16.056C86.5758 16.2481 86.5328 16.4449 86.4645 16.6324C86.183 17.4094 85.9632 17.5297 85.159 17.3431C84.7681 17.2527 84.3669 17.1818 83.9984 17.0335C83.4476 16.8115 83.2026 16.9589 83.0698 17.539C82.7471 18.9465 82.3674 20.3418 82.0177 21.7437C81.782 22.6904 81.869 22.8247 82.8285 23.1176C83.0539 23.1866 83.4027 23.1661 83.4335 23.4478C83.5009 24.0625 83.2858 24.6435 82.9547 25.1463C82.7116 25.5156 82.3038 25.3132 81.9681 25.2321C80.1277 24.79 78.29 24.333 76.4477 23.8955C75.9446 23.7761 75.4592 23.6362 75.0505 23.3051L75.0515 23.307Z" fill="#FEE193"/>
<path d="M51.2154 21.0478C51.1864 20.3594 51.1593 19.672 51.2416 18.9855C51.4062 17.6191 51.5409 17.4857 53.0998 17.2805C51.3258 15.9132 51.0864 14.1009 51.3968 12.1226C51.7803 10.6368 52.9436 10.0342 54.266 9.62662C54.5793 9.52962 54.9122 9.49604 55.2358 9.43262C56.0382 9.43355 56.8396 9.43542 57.642 9.43635C58.7764 9.64621 59.9192 9.83649 60.9507 10.3868C61.2359 10.5388 61.6371 10.5948 61.6932 11.0257C61.234 10.8065 60.7908 10.5407 60.3129 10.3775C58.4023 9.72549 56.4263 9.42795 54.4465 9.86167C53.0231 10.1741 51.8869 11.0192 51.6419 12.4518C51.293 14.4889 52.1338 16.1137 54.1079 16.9448C54.9889 17.316 55.9035 17.6051 56.7947 17.9549C57.1576 18.0967 57.5036 18.3298 57.4409 18.7804C57.3736 19.2663 56.9864 19.4827 56.5394 19.5377C55.5322 19.6608 54.6354 19.4379 53.9546 18.6237C53.7694 18.4017 53.6029 18.1592 53.3906 17.967C53.04 17.6508 52.621 17.5361 52.1515 17.6769C51.7026 17.8113 51.6306 18.1843 51.5876 18.5696C51.538 19.0107 51.5128 19.4538 51.4557 19.894C51.3781 20.4938 51.6465 20.8948 52.1824 21.0954C54.5419 21.9777 56.95 22.2473 59.3712 21.4125C60.9741 20.8594 61.7082 19.6459 61.7662 17.8542C61.8176 16.2648 60.8478 15.4477 59.5704 14.8293C58.6866 14.4012 57.7019 14.3061 56.791 13.9572C56.2252 13.7399 55.752 13.5002 55.8184 12.8137C55.8651 12.3287 56.4206 12.0172 57.1295 12.0181C57.2399 12.0181 57.3512 12.0368 57.4615 12.048C58.45 12.1543 59.0485 12.7727 59.5068 13.5851C59.8509 14.1951 60.4186 14.1177 60.9825 14.0403C61.5071 13.9684 61.6437 13.5851 61.7241 13.1448C61.8541 12.4369 61.7708 11.7327 61.6988 11.0285C62.0121 11.0798 61.941 11.3951 62.072 11.5713C62.0636 12.0368 62.1 12.5078 62.0364 12.9648C61.9139 13.8435 62.0795 14.904 60.6598 15.1278C61.9616 16.054 62.1664 17.2581 62.0608 18.5826C61.9813 19.5788 61.6904 20.491 61.0825 21.294C60.2633 22.1064 59.2692 22.5644 58.133 22.708C56.184 22.9552 54.2707 22.8162 52.4246 22.1008C51.8981 21.8966 51.4062 21.6391 51.2135 21.0469L51.2154 21.0478ZM59.3496 14.4227C58.9793 13.3687 57.9796 12.8678 56.7816 13.0637C56.6311 13.088 56.4197 13.0908 56.3926 13.2502C56.3552 13.4676 56.5871 13.5226 56.7452 13.5748C57.5803 13.8537 58.4191 14.1205 59.3496 14.4217V14.4227ZM53.8882 17.8299C54.3801 18.9874 55.6706 19.6049 56.6404 19.2626C56.7377 19.2281 56.8733 19.2169 56.8845 19.0798C56.8957 18.9436 56.7751 18.8885 56.6769 18.8522C55.7885 18.522 54.8982 18.1993 53.8882 17.8308V17.8299Z" fill="#F38B22"/>
<path d="M86.1315 18.2385C85.3749 18.5314 84.681 18.2096 83.9936 17.9839C83.5419 17.8356 83.3671 17.9335 83.2623 18.3924C82.9818 19.6264 82.675 20.8548 82.343 22.0766C82.2299 22.4954 82.3402 22.6708 82.7405 22.8098C83.7898 23.1745 83.8627 23.3451 83.6242 24.4355C83.5101 24.9578 83.3652 25.4689 83.1351 25.954C82.8078 26.2468 82.4281 26.3112 82.012 26.2077C79.9592 25.6947 77.9037 25.1938 75.8566 24.6593C75.0822 24.4569 74.812 23.9486 75.0505 23.306C75.4591 23.6371 75.9445 23.777 76.4476 23.8964C78.2899 24.3338 80.1266 24.7909 81.968 25.233C82.3037 25.3141 82.7115 25.5156 82.9546 25.1472C83.2857 24.6454 83.5008 24.0633 83.4334 23.4487C83.4026 23.1661 83.0528 23.1866 82.8284 23.1185C81.8689 22.8256 81.781 22.6913 82.0176 21.7446C82.3673 20.3427 82.747 18.9483 83.0697 17.5399C83.2025 16.9597 83.4475 16.8124 83.9983 17.0344C84.3668 17.1827 84.7689 17.2535 85.1589 17.344C85.9631 17.5306 86.182 17.4102 86.4644 16.6333C86.5327 16.4458 86.5757 16.249 86.6299 16.0569C86.7954 15.4683 86.6683 15.0812 85.9884 14.9404C85.402 14.8191 84.8381 14.5925 84.2583 14.4339C83.9581 14.3518 83.8627 14.2157 83.9618 13.9069C84.1115 13.4424 84.262 12.9929 84.6071 12.6198C85.3281 11.84 86.3007 12.0266 86.6411 13.0274C86.9909 14.0552 87.1826 14.1541 88.2478 13.8547C90.0592 13.3454 90.5306 11.7449 89.1484 10.482C87.422 8.90382 85.359 8.22946 83.036 8.86091C81.405 9.30396 80.4708 10.5435 79.8339 12.034C79.7815 12.1562 79.731 12.2831 79.7049 12.4127C79.5786 13.046 79.256 13.158 78.6565 12.9257C77.9009 12.6338 77.7662 12.7336 77.4754 13.5021C77.4052 13.6887 77.3435 13.8808 77.2986 14.0748C77.063 15.0887 77.0648 15.1325 78.0907 15.4179C78.6107 15.5625 78.6921 15.8004 78.5621 16.2798C78.145 17.8244 77.7447 19.3736 77.3763 20.9303C77.2294 21.5525 76.9208 21.8239 76.2914 21.6616C75.8201 21.5403 75.5742 21.7595 75.4367 22.1746C75.3881 22.321 75.3656 22.4852 75.172 22.5197C75.2356 21.5394 75.4479 21.3267 76.3634 21.4172C76.7347 21.4536 76.9526 21.3678 77.0433 20.9872C77.3042 19.8931 77.5801 18.8019 77.8495 17.7096C77.9243 17.5035 77.9963 17.2955 78.0758 17.0912C78.2516 16.6351 78.2366 16.3357 77.6372 16.1996C77.1714 16.0942 76.962 15.6623 76.9189 15.181C76.8619 14.5468 77.0508 13.9592 77.2378 13.366C77.4445 12.7103 77.8569 12.4314 78.5462 12.5685C79.0905 12.6767 79.4159 12.4388 79.6104 11.923C79.8358 11.3252 80.1547 10.7683 80.5194 10.2413C81.4986 9.07824 82.7433 8.44772 84.2695 8.38149C85.7583 8.31807 87.0994 8.80868 88.3937 9.47744C88.6003 9.64347 88.8108 9.80669 89.0137 9.97738C89.8348 10.6685 90.4146 11.4707 90.2229 12.6226C89.9218 13.4173 89.6047 14.1774 88.7313 14.5561C87.3313 15.1633 87.1022 15.1045 86.4307 13.7698C86.2671 13.4443 86.1109 13.1346 85.6639 13.1468C85.2243 13.1598 84.9036 13.3576 84.6642 13.7101C84.4453 14.031 84.5183 14.2362 84.9017 14.3425C85.3506 14.4666 85.7939 14.6111 86.2399 14.7436C86.7693 14.8994 87.0059 15.2538 86.9301 15.7938C86.8665 16.2527 86.7749 16.707 86.6954 17.1631C86.5832 17.5613 86.4073 17.9251 86.1324 18.2385H86.1315Z" fill="#F38B22"/>
<path d="M64.0499 12.3707C65.232 11.326 66.6151 10.7645 68.1872 10.6535C69.5535 10.5575 70.8637 10.8429 72.1627 11.2178C73.6851 11.8894 74.9355 12.8613 75.6846 14.3872C76.0932 15.3582 76.1699 16.3851 76.2064 17.4204L76.2157 17.427C76.1045 17.5967 76.1138 17.7851 76.1344 17.9745C75.8566 19.5153 75.2647 20.9107 74.2275 22.1018C71.5913 24.372 67.0201 24.1705 64.3454 21.6671C64.1687 21.502 63.9873 21.3425 63.8077 21.1812C63.4205 20.4135 62.953 19.6841 62.7435 18.8335C62.1627 16.4728 62.5172 14.3051 64.0499 12.3716V12.3707ZM75.8398 16.9485C75.8501 14.7678 75.0197 13.1999 73.3503 12.1627C71.4145 10.9595 69.2477 10.5948 67.0406 11.0863C62.7594 12.0405 61.754 16.9205 63.6254 19.8157C64.8701 21.7408 66.8125 22.4058 68.954 22.7118C72.8753 23.2714 75.8604 20.6934 75.8398 16.9494V16.9485Z" fill="#F38B22"/>
<path d="M25.8064 19.7375C25.8223 18.0185 26.808 16.847 28.7204 16.0971C29.7968 15.6745 30.9312 15.5197 32.031 15.2119C32.3676 15.1177 32.4116 14.9918 32.3471 14.7194C32.2049 14.1141 31.858 13.7391 31.2043 13.6916C30.1064 13.6114 29.1478 13.9956 28.2491 14.5711C27.9685 14.7502 27.7086 14.9629 27.4467 15.1709C26.5358 15.8937 26.4779 15.8965 25.8429 15.1849C25.1003 14.3529 25.09 13.9098 25.8401 13.1963C27.3794 11.731 29.3002 11.163 31.3474 10.8869C32.4976 10.7321 33.6245 10.8011 34.6944 11.2479C36.07 11.8224 36.7724 12.8866 36.9435 14.3715C37.0941 15.6783 37.3569 16.972 37.5776 18.2694C37.6645 18.7833 37.976 19.0128 38.4866 18.8654C38.9523 18.7311 39.0907 18.9792 39.1571 19.356C39.2964 20.1516 39.1318 20.8297 38.509 21.4089C37.2549 22.5748 35.4098 22.7819 33.9855 21.8352C33.6554 21.616 33.4702 21.7307 33.242 21.9527C32.059 23.1027 30.631 23.5094 29.0103 23.3247C27.1718 23.1158 25.7896 21.5703 25.8064 19.7384V19.7375ZM33.0232 18.8803C32.8343 18.4429 33.1298 17.5801 32.636 17.3357C32.1123 17.0764 31.5129 17.6818 30.9798 17.9886C30.9611 17.9998 30.9434 18.0138 30.9265 18.0278C30.4468 18.4223 30.2495 19.3429 30.5235 19.9184C30.7526 20.3988 31.1472 20.5126 31.6335 20.4025C32.3948 20.23 33.0391 19.5799 33.0232 18.8803Z" fill="#FEE193"/>
<path d="M45.1947 15.5084C45.2499 16.4178 45.2957 17.3281 45.3631 18.2366C45.422 19.0359 45.609 19.1908 46.4133 19.1637C47.3101 19.1329 47.4439 19.2551 47.4972 20.1552C47.5589 21.1905 47.4373 21.3575 46.5349 21.434C44.5373 21.6037 42.5388 21.7697 40.5403 21.932C39.6407 22.0057 39.4471 21.7968 39.4349 20.8958C39.4256 20.2326 39.4592 19.6711 40.3224 19.5816C40.6946 19.5433 40.7591 19.2048 40.7339 18.8559C40.6076 17.1509 40.4879 15.4459 40.3748 13.7399C40.3393 13.2008 40.199 12.7904 39.5406 12.7746C39.1525 12.7652 38.9355 12.5143 38.9103 12.1282C38.8888 11.7961 38.8916 11.4622 38.886 11.1283C38.8813 10.8149 39.0291 10.6657 39.3451 10.5855C40.6984 10.2432 42.0432 9.88127 43.4637 9.95216C43.9509 9.97641 44.296 10.1779 44.4073 10.6302C44.5682 11.2794 44.7935 11.1031 45.1377 10.7711C46.1832 9.76095 47.4027 9.28339 48.8597 9.69846C50.0147 10.0277 50.6609 11.036 50.5767 12.3157C50.501 13.4834 49.8314 14.2539 48.7391 14.4581C47.9965 14.5971 47.4476 14.28 46.9548 13.7754C46.7107 13.5263 46.4956 13.198 46.0888 13.2092C45.5978 13.2223 45.2752 13.4872 45.2359 13.9759C45.1947 14.4833 45.2265 14.9963 45.2265 15.5074C45.2153 15.5074 45.205 15.5074 45.1938 15.5084H45.1947Z" fill="#FEE193"/>
<path d="M21.2147 24.915C19.826 24.8702 18.556 24.0457 17.7237 22.5533C16.9157 21.1039 16.5285 19.4949 16.0815 17.9158C15.9328 17.3907 15.7654 17.2172 15.2127 17.3972C14.3093 17.691 14.2625 17.6425 13.9708 16.7667C13.9147 16.5979 13.8632 16.4272 13.8174 16.2556C13.5724 15.335 13.6004 15.2184 14.4898 14.9386C15.0416 14.7651 15.1556 14.5356 15.0032 13.9779C14.4627 11.9902 14.3102 12.2663 16.2423 11.4371C16.8567 11.1732 17.4908 10.9549 18.094 10.6695C18.6448 10.4093 18.9553 10.4792 19.0806 11.1293C19.1863 11.6731 19.3902 12.1964 19.5164 12.7373C19.6221 13.1897 19.8016 13.3884 20.3048 13.2102C20.8491 13.0172 21.4195 12.8978 21.9816 12.7569C22.1527 12.714 22.3678 12.6282 22.5015 12.6916C23.2216 13.0349 23.0692 13.7717 23.2039 14.3733C23.2983 14.794 23.1786 15.1158 22.7045 15.2352C22.1434 15.376 21.5907 15.5551 21.0258 15.6838C20.6742 15.764 20.5245 15.9114 20.6274 16.2836C21.0473 17.8002 21.4261 19.3317 22.019 20.7923C22.4753 21.9153 23.3133 22.1252 24.3242 21.4359C24.3981 21.3855 24.4626 21.3212 24.5384 21.2773C24.8713 21.0833 24.9601 20.5424 25.4361 20.5853C25.6606 20.6058 26.0225 22.0338 25.9252 22.3891C25.8168 22.7865 25.5783 23.1064 25.2987 23.3993C24.3794 24.3647 23.0131 24.9178 21.2119 24.915H21.2147Z" fill="#FEE193"/>
<path d="M8.48125 24.2488C8.08005 24.2488 7.67979 24.2544 7.2786 24.2488C5.40168 24.2189 4.18501 23.3431 3.61454 21.6157C3.11422 20.1 3.64915 18.6403 5.08652 17.5332C6.96344 16.0874 9.1312 15.6649 11.4364 15.7069C11.9826 15.7172 12.3735 15.9475 12.5596 16.4792C12.7139 16.9185 12.8888 17.3522 13.0225 17.7981C13.1403 18.1907 13.2058 18.6095 12.7737 18.8707C12.3473 19.1281 11.905 19.324 11.399 19.0143C11.0783 18.8175 10.7453 18.6189 10.3909 18.5013C9.48283 18.1991 8.63088 18.353 7.87618 18.949C7.61994 19.1514 7.46844 19.4303 7.53671 19.7698C7.61059 20.1383 7.92668 20.2241 8.23249 20.3015C8.58505 20.3901 8.94042 20.3323 9.29579 20.308C10.318 20.2399 11.3401 20.1756 12.3613 20.336C13.664 20.5403 14.5497 21.2118 14.9789 22.4943C15.4456 23.8859 15.2417 25.1339 14.242 26.1981C13.088 27.4265 11.5814 28.0328 9.9738 28.405C8.8441 28.6661 7.69943 28.8284 6.53045 28.7072C6.13019 28.6652 5.87769 28.4768 5.72526 28.1121C5.52793 27.6383 5.36615 27.1561 5.26327 26.6533C5.18191 26.2578 5.1922 25.8857 5.57002 25.645C5.97402 25.3876 6.39953 25.188 6.86992 25.5173C7.8659 26.2149 8.93481 26.4285 10.0944 25.978C10.3208 25.8903 10.5452 25.7859 10.7509 25.6572C11.0698 25.4585 11.1765 25.1507 11.0942 24.7897C11.0137 24.4381 10.7472 24.259 10.4161 24.246C9.7718 24.2189 9.12559 24.2385 8.48031 24.2385C8.48031 24.2432 8.48031 24.2469 8.48031 24.2516L8.48125 24.2488Z" fill="#FEE193"/>
<path d="M92.8209 25.5782C93.2398 26.2209 93.8935 25.9821 94.4537 25.9653C95.5105 25.9336 95.5722 25.9933 95.2299 27.0062C95.0597 27.5108 94.7492 27.8429 94.2358 27.993C92.5889 28.4753 91.0019 28.3139 89.5318 27.4465C88.1749 26.6462 87.6802 25.1343 88.0729 23.2026C88.3423 21.8781 88.6574 20.5621 89.1531 19.2991C89.3438 18.8132 89.3167 18.5362 88.7051 18.4308C88.2974 18.3608 87.7755 18.3263 87.6371 17.7788C87.5408 17.3964 88.0589 15.9805 88.3516 15.8173C88.7107 15.6177 89.0558 15.8145 89.371 15.9423C89.9096 16.1605 90.1621 16.0579 90.3033 15.4554C90.5334 14.4723 90.6391 14.4145 91.6322 14.5096C92.718 14.6141 93.7981 14.7726 94.8811 14.8958C95.2626 14.9396 95.3898 15.1103 95.258 15.4778C95.0999 15.9171 94.9989 16.3825 94.7932 16.7967C94.522 17.3423 94.7305 17.5363 95.2439 17.6678C95.8247 17.8171 96.3858 18.0446 96.9637 18.206C97.4332 18.3366 97.5688 18.6108 97.4295 19.0557C97.3892 19.1826 97.3584 19.3131 97.3154 19.4391C96.9104 20.6161 96.7122 20.7197 95.4946 20.396C95.3225 20.3503 95.1513 20.3009 94.9811 20.2477C93.7645 19.8644 93.6971 19.8532 93.3305 21.0424C92.9742 22.1962 92.7227 23.3835 92.472 24.5662C92.3954 24.9281 92.3037 25.3833 92.8237 25.581L92.819 25.5764L92.8209 25.5782Z" fill="#FEE193"/>
<path d="M75.1664 22.6474C75.1524 22.6129 75.1356 22.5793 75.1272 22.5429C75.1253 22.5364 75.1552 22.5214 75.1711 22.5103C75.1692 22.556 75.1674 22.6007 75.1664 22.6464V22.6474Z" fill="#F38B22"/>
<path d="M61.7007 11.0286C61.7727 11.7337 61.856 12.437 61.726 13.1449C61.6446 13.5852 61.509 13.9685 60.9844 14.0403C60.4204 14.1177 59.8528 14.1942 59.5086 13.5852C59.0504 12.7728 58.4519 12.1544 57.4634 12.048C57.353 12.0359 57.2417 12.0182 57.1314 12.0182C56.4225 12.0173 55.867 12.3288 55.8203 12.8138C55.7548 13.5003 56.2271 13.74 56.7929 13.9573C57.7028 14.3062 58.6885 14.4022 59.5722 14.8294C60.8497 15.4478 61.8195 16.2649 61.768 17.8542C61.7101 19.646 60.9759 20.8595 59.373 21.4126C56.9518 22.2473 54.5437 21.9778 52.1843 21.0954C51.6484 20.8949 51.38 20.4938 51.4576 19.8941C51.5147 19.4548 51.5399 19.0108 51.5895 18.5696C51.6325 18.1853 51.7045 17.8113 52.1534 17.677C52.6229 17.5362 53.0418 17.6509 53.3925 17.9671C53.6048 18.1592 53.7713 18.4017 53.9564 18.6237C54.6373 19.438 55.5341 19.6609 56.5413 19.5378C56.9892 19.4828 57.3764 19.2673 57.4428 18.7804C57.5045 18.329 57.1595 18.0967 56.7966 17.955C55.9063 17.6061 54.9908 17.316 54.1098 16.9448C52.1356 16.1138 51.2949 14.489 51.6437 12.4519C51.8887 11.0192 53.025 10.1742 54.4484 9.86174C56.4281 9.42709 58.4051 9.72556 60.3148 10.3775C60.7927 10.5408 61.2359 10.8066 61.6951 11.0258L61.7017 11.0295L61.7007 11.0286Z" fill="#FEE193"/>
<path d="M75.8397 16.9487C75.8603 20.6926 72.8752 23.2707 68.954 22.711C66.8124 22.4051 64.87 21.7401 63.6253 19.8149C61.754 16.9207 62.7593 12.0398 67.0406 11.0856C69.2476 10.594 71.4154 10.9587 73.3503 12.162C75.0196 13.1991 75.85 14.767 75.8397 16.9477V16.9487ZM67.2603 17.2462C67.2519 17.7993 67.2127 18.359 67.3988 18.8953C67.6232 19.5426 68.0019 20.0407 68.7398 20.1265C69.5207 20.2179 70.1192 19.8718 70.4334 19.1928C71.0497 17.8609 71.3611 16.4618 71.0376 14.9872C70.8412 14.0908 70.4063 13.6487 69.6797 13.5666C68.9484 13.4836 68.2227 13.9127 67.842 14.6327C67.409 15.4517 67.2351 16.3247 67.2603 17.2453V17.2462Z" fill="#FEE193"/>
<path d="M33.0232 18.8804C33.0391 19.5799 32.3948 20.23 31.6336 20.4026C31.1473 20.5126 30.7526 20.3998 30.5235 19.9185C30.2495 19.343 30.4468 18.4233 30.9266 18.0279C30.9434 18.0139 30.9612 17.9989 30.9799 17.9887C31.5129 17.6818 32.1124 17.0756 32.6361 17.3358C33.1299 17.5802 32.8343 18.4429 33.0232 18.8804ZM32.7053 18.8766C32.5781 18.7367 32.7848 18.2303 32.2424 18.3608C31.7196 18.4868 31.2389 18.7246 30.9387 19.1994C30.6918 19.5892 30.8293 20.0118 31.2099 20.1125C31.8234 20.2757 32.7043 19.5967 32.7053 18.8766Z" fill="#F38B22"/>
<path d="M67.2604 17.2462C67.2352 16.3265 67.4091 15.4535 67.8421 14.6336C68.2227 13.9136 68.9485 13.4836 69.6798 13.5675C70.4055 13.6496 70.8413 14.0917 71.0377 14.9881C71.3612 16.4618 71.0498 17.8618 70.4335 19.1937C70.1193 19.8727 69.5208 20.2188 68.7399 20.1274C68.002 20.0416 67.6233 19.5435 67.3988 18.8962C67.2127 18.3599 67.252 17.8002 67.2604 17.2471V17.2462ZM67.5831 17.7079C67.5831 17.8851 67.5672 18.0642 67.5859 18.2395C67.6878 19.1863 68.1348 19.7636 68.8175 19.8438C69.5386 19.9287 70.0604 19.5323 70.4045 18.6024C70.6991 17.8068 70.8665 16.9804 70.8805 16.1297C70.8964 15.1718 70.6009 14.6812 69.922 14.5152C69.1635 14.3296 68.4603 14.6784 68.0497 15.4498C67.6747 16.1558 67.5924 16.9263 67.5821 17.707L67.5831 17.7079Z" fill="#F38B22"/>
</svg>
